<?xml version="1.0" encoding="UTF-8"?><svg id="Layer_1" xmlns="http://www.w3.org/2000/svg" viewBox="0 0 1737.09 337"><path d="M36.5,0h.5v37H0V0h36.5ZM36.5,50h.5v37H0v-37h36.5ZM36.5,100h.5v37H0v-37h36.5ZM36.5,150h.5v37H0v-37h36.5ZM36.5,200h.5v37H0v-37h36.5ZM36.5,250h.5v37H0v-37h36.5ZM36.5,300h.5v37H0v-37h36.5ZM86.5,100h.5v37h-37v-37h36.5ZM136.5,150h.5v37h-37v-37h36.5ZM186.5,100h.5v37h-37v-37h36.5ZM236.5,0h.5v37h-37V0h36.5ZM236.5,50h.5v37h-37v-37h36.5ZM236.5,100h.5v37h-37v-37h36.5ZM236.5,150h.5v37h-37v-37h36.5ZM236.5,200h.5v37h-37v-37h36.5ZM236.5,250h.5v37h-37v-37h36.5ZM236.5,300h.5v37h-37v-37h36.5Z"/><path d="M336.5,0h.5v37h-37V0h36.5ZM336.5,300h.5v37h-37v-37h36.5ZM386.5,0h.5v37h-37V0h36.5ZM386.5,50h.5v37h-37v-37h36.5ZM386.5,100h.5v37h-37v-37h36.5ZM386.5,150h.5v37h-37v-37h36.5ZM386.5,200h.5v37h-37v-37h36.5ZM386.5,250h.5v37h-37v-37h36.5ZM386.5,300h.5v37h-37v-37h36.5ZM436.5,0h.5v37h-37V0h36.5ZM436.5,300h.5v37h-37v-37h36.5Z"/><path d="M536.49,0h.5v37h-37V0h36.5ZM536.49,50h.5v37h-37v-37h36.5ZM536.49,100h.5v37h-37v-37h36.5ZM536.49,150h.5v37h-37v-37h36.5ZM536.49,200h.5v37h-37v-37h36.5ZM536.49,250h.5v37h-37v-37h36.5ZM536.49,300h.5v37h-37v-37h36.5ZM586.49,100h.5v37h-37v-37h36.5ZM636.49,150h.5v37h-37v-37h36.5ZM686.49,200h.5v37h-37v-37h36.5ZM736.49,0h.5v37h-37V0h36.5ZM736.49,50h.5v37h-37v-37h36.5ZM736.49,100h.5v37h-37v-37h36.5ZM736.49,150h.5v37h-37v-37h36.5ZM736.49,200h.5v37h-37v-37h36.5ZM736.49,250h.5v37h-37v-37h36.5ZM736.49,300h.5v37h-37v-37h36.5Z"/><path d="M836.49,0h.5v37h-37V0h36.5ZM836.49,300h.5v37h-37v-37h36.5ZM886.49,0h.5v37h-37V0h36.5ZM886.49,50h.5v37h-37v-37h36.5ZM886.49,100h.5v37h-37v-37h36.5ZM886.49,150h.5v37h-37v-37h36.5ZM886.49,200h.5v37h-37v-37h36.5ZM886.49,250h.5v37h-37v-37h36.5ZM886.49,300h.5v37h-37v-37h36.5ZM936.49,0h.5v37h-37V0h36.5ZM936.49,300h.5v37h-37v-37h36.5Z"/><path d="M937.1,101.1h.2v14.8h-14.8v-14.8h14.6ZM937.1,121.1h.2v14.8h-14.8v-14.8h14.6ZM937.1,141.1h.2v14.8h-14.8v-14.8h14.6ZM937.1,161.1h.2v14.8h-14.8v-14.8h14.6ZM937.1,181.1h.2v14.8h-14.8v-14.8h14.6ZM937.1,201.1h.2v14.8h-14.8v-14.8h14.6ZM937.1,221.1h.2v14.8h-14.8v-14.8h14.6ZM957.1,101.1h.2v14.8h-14.8v-14.8h14.6ZM957.1,161.1h.2v14.8h-14.8v-14.8h14.6ZM977.1,101.1h.2v14.8h-14.8v-14.8h14.6ZM977.1,161.1h.2v14.8h-14.8v-14.8h14.6ZM977.1,181.1h.2v14.8h-14.8v-14.8h14.6ZM997.1,101.1h.2v14.8h-14.8v-14.8h14.6ZM997.1,161.1h.2v14.8h-14.8v-14.8h14.6ZM997.1,201.1h.2v14.8h-14.8v-14.8h14.6ZM1017.1,121.1h.2v14.8h-14.8v-14.8h14.6ZM1017.1,141.1h.2v14.8h-14.8v-14.8h14.6ZM1017.1,221.1h.2v14.8h-14.8v-14.8h14.6Z"/><path d="M1057.1,101.1h.2v14.8h-14.8v-14.8h14.6ZM1057.1,121.1h.2v14.8h-14.8v-14.8h14.6ZM1057.1,141.1h.2v14.8h-14.8v-14.8h14.6ZM1057.1,161.1h.2v14.8h-14.8v-14.8h14.6ZM1057.1,181.1h.2v14.8h-14.8v-14.8h14.6ZM1057.1,201.1h.2v14.8h-14.8v-14.8h14.6ZM1057.1,221.1h.2v14.8h-14.8v-14.8h14.6ZM1077.1,101.1h.2v14.8h-14.8v-14.8h14.6ZM1077.1,161.1h.2v14.8h-14.8v-14.8h14.6ZM1077.1,221.1h.2v14.8h-14.8v-14.8h14.6ZM1097.1,101.1h.2v14.8h-14.8v-14.8h14.6ZM1097.1,161.1h.2v14.8h-14.8v-14.8h14.6ZM1097.1,221.1h.2v14.8h-14.8v-14.8h14.6ZM1117.1,101.1h.2v14.8h-14.8v-14.8h14.6ZM1117.1,161.1h.2v14.8h-14.8v-14.8h14.6ZM1117.1,221.1h.2v14.8h-14.8v-14.8h14.6ZM1137.1,101.1h.2v14.8h-14.8v-14.8h14.6ZM1137.1,221.1h.2v14.8h-14.8v-14.8h14.6Z"/><path d="M1177.1,141.1h.2v14.8h-14.8v-14.8h14.6ZM1177.1,161.1h.2v14.8h-14.8v-14.8h14.6ZM1177.1,181.1h.2v14.8h-14.8v-14.8h14.6ZM1177.1,201.1h.2v14.8h-14.8v-14.8h14.6ZM1177.1,221.1h.2v14.8h-14.8v-14.8h14.6ZM1197.1,121.1h.2v14.8h-14.8v-14.8h14.6ZM1197.1,181.1h.2v14.8h-14.8v-14.8h14.6ZM1217.1,101.1h.2v14.8h-14.8v-14.8h14.6ZM1217.1,181.1h.2v14.8h-14.8v-14.8h14.6ZM1237.1,121.1h.2v14.8h-14.8v-14.8h14.6ZM1237.1,181.1h.2v14.8h-14.8v-14.8h14.6ZM1257.1,141.1h.2v14.8h-14.8v-14.8h14.6ZM1257.1,161.1h.2v14.8h-14.8v-14.8h14.6ZM1257.1,181.1h.2v14.8h-14.8v-14.8h14.6ZM1257.1,201.1h.2v14.8h-14.8v-14.8h14.6ZM1257.1,221.1h.2v14.8h-14.8v-14.8h14.6Z"/><path d="M1297.1,121.1h.2v14.8h-14.8v-14.8h14.6ZM1297.1,141.1h.2v14.8h-14.8v-14.8h14.6ZM1297.1,161.1h.2v14.8h-14.8v-14.8h14.6ZM1297.1,181.1h.2v14.8h-14.8v-14.8h14.6ZM1297.1,201.1h.2v14.8h-14.8v-14.8h14.6ZM1317.1,101.1h.2v14.8h-14.8v-14.8h14.6ZM1317.1,221.1h.2v14.8h-14.8v-14.8h14.6ZM1337.1,101.1h.2v14.8h-14.8v-14.8h14.6ZM1337.1,221.1h.2v14.8h-14.8v-14.8h14.6ZM1357.1,101.1h.2v14.8h-14.8v-14.8h14.6ZM1357.1,221.1h.2v14.8h-14.8v-14.8h14.6ZM1377.1,121.1h.2v14.8h-14.8v-14.8h14.6ZM1377.1,201.1h.2v14.8h-14.8v-14.8h14.6Z"/><path d="M1417.1,101.1h.2v14.8h-14.8v-14.8h14.6ZM1437.1,101.1h.2v14.8h-14.8v-14.8h14.6ZM1457.1,101.1h.2v14.8h-14.8v-14.8h14.6ZM1457.1,121.1h.2v14.8h-14.8v-14.8h14.6ZM1457.1,141.1h.2v14.8h-14.8v-14.8h14.6ZM1457.1,161.1h.2v14.8h-14.8v-14.8h14.6ZM1457.1,181.1h.2v14.8h-14.8v-14.8h14.6ZM1457.1,201.1h.2v14.8h-14.8v-14.8h14.6ZM1457.1,221.1h.2v14.8h-14.8v-14.8h14.6ZM1477.1,101.1h.2v14.8h-14.8v-14.8h14.6ZM1497.1,101.1h.2v14.8h-14.8v-14.8h14.6Z"/><path d="M1537.09,121.1h.2v14.8h-14.8v-14.8h14.6ZM1537.09,141.1h.2v14.8h-14.8v-14.8h14.6ZM1537.09,161.1h.2v14.8h-14.8v-14.8h14.6ZM1537.09,181.1h.2v14.8h-14.8v-14.8h14.6ZM1537.09,201.1h.2v14.8h-14.8v-14.8h14.6ZM1557.09,101.1h.2v14.8h-14.8v-14.8h14.6ZM1557.09,221.1h.2v14.8h-14.8v-14.8h14.6ZM1577.09,101.1h.2v14.8h-14.8v-14.8h14.6ZM1577.09,221.1h.2v14.8h-14.8v-14.8h14.6ZM1597.09,101.1h.2v14.8h-14.8v-14.8h14.6ZM1597.09,221.1h.2v14.8h-14.8v-14.8h14.6ZM1617.09,121.1h.2v14.8h-14.8v-14.8h14.6ZM1617.09,141.1h.2v14.8h-14.8v-14.8h14.6ZM1617.09,161.1h.2v14.8h-14.8v-14.8h14.6ZM1617.09,181.1h.2v14.8h-14.8v-14.8h14.6ZM1617.09,201.1h.2v14.8h-14.8v-14.8h14.6Z"/><path d="M1657.09,101.1h.2v14.8h-14.8v-14.8h14.6ZM1657.09,121.1h.2v14.8h-14.8v-14.8h14.6ZM1657.09,141.1h.2v14.8h-14.8v-14.8h14.6ZM1657.09,161.1h.2v14.8h-14.8v-14.8h14.6ZM1657.09,181.1h.2v14.8h-14.8v-14.8h14.6ZM1657.09,201.1h.2v14.8h-14.8v-14.8h14.6ZM1657.09,221.1h.2v14.8h-14.8v-14.8h14.6ZM1677.09,101.1h.2v14.8h-14.8v-14.8h14.6ZM1677.09,161.1h.2v14.8h-14.8v-14.8h14.6ZM1697.09,101.1h.2v14.8h-14.8v-14.8h14.6ZM1697.09,161.1h.2v14.8h-14.8v-14.8h14.6ZM1697.09,181.1h.2v14.8h-14.8v-14.8h14.6ZM1717.09,101.1h.2v14.8h-14.8v-14.8h14.6ZM1717.09,161.1h.2v14.8h-14.8v-14.8h14.6ZM1717.09,201.1h.2v14.8h-14.8v-14.8h14.6ZM1737.09,121.1h.2v14.8h-14.8v-14.8h14.6ZM1737.09,141.1h.2v14.8h-14.8v-14.8h14.6ZM1737.09,221.1h.2v14.8h-14.8v-14.8h14.6Z"/></svg>